<?xml version="1.0" encoding="utf-8"?>
<!-- Generator: Adobe Illustrator 18.0.0, SVG Export Plug-In . SVG Version: 6.00 Build 0)  -->
<!DOCTYPE svg PUBLIC "-//W3C//DTD SVG 1.1//EN" "http://www.w3.org/Graphics/SVG/1.1/DTD/svg11.dtd">
<svg version="1.1" id="Layer_1" xmlns="http://www.w3.org/2000/svg" xmlns:xlink="http://www.w3.org/1999/xlink" x="0px" y="0px"
	 viewBox="0 0 562.5 73" xml:space="preserve">
<g>
	<g>
		<g>
			<g>
				<path fill="#F5AF19" d="M551.1,68c-1.8,0.2-1.2,0.1-1.5,0.2C550.4,68.1,550.9,68.1,551.1,68c0.3,0,0.4-0.1,0.4-0.1
					C551.4,68,551.1,68,551.1,68z"/>
				<polygon fill="#F5AF19" points="558.2,41.6 558.2,42.1 558.2,37.8 				"/>
				<path fill="#F5AF19" d="M558.3,13.9c-0.1,2.6,0,10.1,0,15l0,0.8l0.1,2.2C558.3,25.9,558.3,18.1,558.3,13.9z"/>
				<path fill="#F5AF19" d="M547.5,5.3c0.5,0-0.3,0-0.4,0c0,0,0.1,0,0.7,0c0.3,0,0.7,0,1.2,0c0.5,0,1.2,0,2.1,0.1
					c-0.4-0.1-0.5-0.1-0.7-0.1C549.8,5.3,548.9,5.3,547.5,5.3z"/>
				<path fill="#F5AF19" d="M550.4,5.3c1.6,0.2,1.1,0.1,0.4,0C550.2,5.3,549.4,5.3,550.4,5.3z"/>
				<path fill="#F5AF19" d="M536.9,5.2l3.8,0c-0.8,0-4.2-0.1-3-0.1C533.8,5.1,534.6,5.1,536.9,5.2z"/>
				<path fill="#F5AF19" d="M533.2,5.3l2,0C534.9,5.3,534.4,5.3,533.2,5.3z"/>
				<path fill="#F5AF19" d="M539.5,5.3l-4.2,0c0.6,0,0.6,0.1,1.9,0C536.8,5.3,537.7,5.3,539.5,5.3z"/>
				<path fill="#F5AF19" d="M541.9,5.3c2.2,0.1,4.9,0.1,1.1,0.1C550.3,5.5,549.2,5.4,541.9,5.3z"/>
				<path fill="#F5AF19" d="M557.9,12.4c0,0,0.2,0.7,0.2,1.5c0,0.4,0,0.7,0,1c0,0.3,0,0.5,0,0.5l0,2.5c0-0.6,0-2,0-3.2
					C558.2,13.4,557.9,12.3,557.9,12.4z"/>
				<path fill="#F5AF19" d="M512.9,4.9c-0.2,0,1.3,0.2,1.6,0.2l2.8,0C515.9,5,513.1,4.9,512.9,4.9z"/>
				<path fill="#F5AF19" d="M514.5,5.1l-4.3,0.1C514.1,5.2,514.8,5.1,514.5,5.1z"/>
				<polygon fill="#F5AF19" points="532.6,5.5 539.5,5.4 531.2,5.5 				"/>
				<polygon fill="#F5AF19" points="496.7,4.6 499.1,4.5 494.8,4.7 				"/>
				<path fill="#F5AF19" d="M485.9,4.5c1.8-0.1-2.4-0.3-0.6-0.3c-2.9,0-5.4,0.1-7.7,0.1C480.1,4.3,482.6,4.4,485.9,4.5z"/>
				<path fill="#F5AF19" d="M473.9,4.5c1.2,0,2.4-0.1,3.8-0.1C476.4,4.4,475.2,4.4,473.9,4.5z"/>
				<path fill="#F5AF19" d="M503,5c-0.3,0-1-0.1-3.3-0.2l1.7,0.2C501.9,5,502.4,5,503,5z"/>
				<path fill="#F5AF19" d="M501.4,5L501.4,5c-1.9,0-3.1,0-3.7,0C498.2,5,499.3,5,501.4,5z"/>
				<path fill="#F5AF19" d="M503.4,5c-0.2,0-0.3,0-0.4,0C503.2,5,503.3,5.1,503.4,5z"/>
				<path fill="#F5AF19" d="M521.4,5.3c-2.5,0.1-7.7,0.1-2.7,0.3C520.5,5.5,517.7,5.4,521.4,5.3z"/>
				<path fill="#F5AF19" d="M505.5,5.2l4.5,0.1c-0.1,0-0.9-0.1,0.3-0.1L505.5,5.2z"/>
				<polygon fill="#F5AF19" points="503.3,5.3 505.5,5.2 503.8,5.2 				"/>
				<path fill="#F5AF19" d="M481.7,4.8c-1.9,0.1-4.1,0.1-6.5,0c2.6,0.1,5.3,0.1,7.8,0.1C483.3,4.9,484.4,4.8,481.7,4.8z"/>
				<path fill="#F5AF19" d="M491.3,4.9c-0.1,0-0.3,0-0.4,0C491.1,4.9,491.3,4.9,491.3,4.9z"/>
				<path fill="#F5AF19" d="M451.4,4.6c0.1,0,0.2,0,0.4,0c0,0,0.1,0,0.1,0L451.4,4.6z"/>
				<path fill="#F5AF19" d="M483.4,5c1.9,0.1,3.1,0,4.2,0c-1.5,0-3,0-4.6,0C482.8,5,482.8,5,483.4,5z"/>
				<path fill="#F5AF19" d="M467.3,4.5c1,0,2.2,0.1,3.4,0.2C469.7,4.6,467.7,4.4,467.3,4.5z"/>
				<path fill="#F5AF19" d="M490.2,4.9c0.1,0,0.2,0,0.3,0C489.8,4.8,489.9,4.8,490.2,4.9z"/>
				<path fill="#F5AF19" d="M490.2,4.9c-1,0-1.8,0.1-2.6,0.1c1.2,0,2.3,0,3.2,0C490.6,4.9,490.3,4.9,490.2,4.9z"/>
				<path fill="#F5AF19" d="M444.3,6.2c0.3-0.2,5.4-0.5,9.9-0.2c4.3-0.2,1.5-0.9-2.3-1.3c-0.1,0.1-0.1,0.2-4.6,0.3
					c1.6,0.1,9.9,0.3,6.1,0.5c-5.9,0.1-4.8-0.1-7.7-0.2c2.4,0.3-7.5,0.4-6.2,0.9l5.2-0.2C444.7,6,442.8,6.1,444.3,6.2z"/>
				<path fill="#F5AF19" d="M460.3,4.7l1.8,0c-2.1-0.1-3.6-0.2-6.3-0.4c-3.1,0.1-3.7,0.2-3.9,0.2l9,0.1L460.3,4.7z"/>
				<path fill="#F5AF19" d="M470.4,4.8c-1.4,0.2-5.8,0.3-3.1,0.5c5.4,0,3.8-0.2,7-0.2C465.6,5.1,476.8,5,470.4,4.8
					c1.8,0,3.3,0,4.8,0c-1.6,0-3.1-0.1-4.5-0.1c0.1,0,0.1,0,0.2,0l0,0l0,0c0.4,0,0.5,0,0.1,0c0,0-0.1,0-0.2,0
					C470.7,4.7,470.6,4.8,470.4,4.8c-2.5-0.1-0.4-0.1,0.4-0.1c0,0,0.1,0,0.1,0c0,0,0,0,0,0l-8.7,0C464,4.8,466.3,4.8,470.4,4.8z"/>
				<path fill="#F5AF19" d="M514.1,5.9c-0.3,0-0.3,0-0.3,0C513.3,5.9,513,5.9,514.1,5.9z"/>
				<path fill="#F5AF19" d="M510.5,5.8c0.6,0,1.2-0.1,3.2-0.1c1.8,0,0,0.1,0.1,0.1c1.2,0,4.3-0.1,0.5-0.2l-0.6,0
					c-3.5-0.1-8-0.3-7.4-0.3C507.3,5.6,508.2,5.7,510.5,5.8z"/>
				<path fill="#F5AF19" d="M490.2,5.4L483,5.5l3.7,0.2l-0.2-0.1C490.6,5.6,489.7,5.5,490.2,5.4z"/>
				<polygon fill="#F5AF19" points="450.6,4.4 451.6,4.2 447.4,4.5 				"/>
				<polygon fill="#F5AF19" points="441.2,4.4 441.5,4.1 439,4.3 				"/>
				<path fill="#F5AF19" d="M44.9,66.3l2.1-0.1C46,66.2,45.4,66.3,44.9,66.3z"/>
				<path fill="#F5AF19" d="M29.5,66.2l-0.4,0.1C29.8,66.3,30.1,66.2,29.5,66.2z"/>
				<path fill="#F5AF19" d="M209.7,3.5c-3.1-0.4-6.6-0.9-6.2-0.5l1,0.4C206.7,3.4,208.3,3.4,209.7,3.5z"/>
				<path fill="#F5AF19" d="M51.2,6c0.3,0,0.6,0.1,0.9,0.1c0.8-0.1,1.5-0.2,2.1-0.3C53.3,5.9,52.3,5.9,51.2,6z"/>
				<path fill="#F5AF19" d="M49,7.4l-4.1-0.2C45.9,7.3,47.2,7.4,49,7.4z"/>
				<path fill="#F5AF19" d="M129.1,66.2l2.5-0.3C127.7,65.9,129.5,66.1,129.1,66.2z"/>
				<path fill="#F5AF19" d="M344.7,3.8c-2.7-0.2-4.8-0.2-6.7-0.3C341.2,3.8,343.8,4.1,344.7,3.8z"/>
				<path fill="#F5AF19" d="M38.8,69.4c1.3-0.1,1.9-0.1,1.8-0.2C39.3,69.3,38.5,69.3,38.8,69.4z"/>
				<path fill="#F5AF19" d="M330.3,3.5c0.5,0,0.9,0.1,1.4,0.1c2-0.1,3.9-0.1,6.3-0.1C335.6,3.3,332.9,3.2,330.3,3.5z"/>
				<path fill="#F5AF19" d="M434.7,67.6c0.2,0,0.5,0,0.7,0C435.5,67.6,435.2,67.6,434.7,67.6z"/>
				<path fill="#F5AF19" d="M523.7,68c-0.9,0-2.3,0-3.7,0C520.7,68,521.8,68,523.7,68z"/>
				<path fill="#F5AF19" d="M403.3,3.9C405.3,3.9,403.6,3.8,403.3,3.9L403.3,3.9z"/>
				<path fill="#F5AF19" d="M413,5.2c-0.4,0-0.7,0.1-0.8,0.2C412.4,5.3,412.6,5.2,413,5.2z"/>
				<path fill="#F5AF19" d="M310.3,6c-0.1,0-0.1,0-0.2,0C310.8,6.1,310.7,6.1,310.3,6z"/>
				<path fill="#F5AF19" d="M406.3,4.1c-0.8,0-1.6-0.1-2.6-0.1C404.1,4,404.9,4,406.3,4.1z"/>
				<path fill="#F5AF19" d="M405.9,3.9c0.7,0,1.2,0,1.7,0C407.9,3.9,407.6,3.9,405.9,3.9z"/>
				<path fill="#F5AF19" d="M400.5,3.9c1.1,0,2.2,0,3.2,0.1c-0.4,0-0.6,0-0.5-0.1C402.7,3.9,401.9,3.9,400.5,3.9z"/>
				<path fill="#F5AF19" d="M271,67.3c0.1,0,0.3,0,0.4,0C273.4,67.3,272.5,67.3,271,67.3z"/>
				<path fill="#F5AF19" d="M157.7,7.8c0.1,0,0.1,0,0.2,0C157.9,7.8,157.7,7.8,157.7,7.8L157.7,7.8z"/>
				<path fill="#F5AF19" d="M150.5,8.1c3.1-0.5,4.8-0.4,7.1-0.3l-2.4-1.2L150.5,8.1z"/>
				<path fill="#F5AF19" d="M81.8,66.3l-5-0.3c6.1-0.4,10.5-0.2,5.8-0.6c-0.7,0.9-19.6,0-20.3,0.9l-3.3-0.2c1,0,1.1,0,2,0
					c-6.5-0.4-4.8,0.6-13.1,0.5c-2.9-0.1-4.9-0.2-2.9-0.3l-6.5,0.2c-1.9,0-1.4-0.2,0.5-0.2L29,66.4l0.1,0c-1.4,0.1-4.6,0.4-6.2,0.5
					c-2.5-0.1,1.3-0.1,0.6-0.2l-5.5,0.2c-2.2-0.2,2.3-0.5,6.1-0.4c-2.6-0.5-3.7-0.4-5.6-0.3c-0.9,0.1-2.1,0.1-3.6,0.1
					c-0.4,0-0.8,0-1.3,0c-0.2,0-0.5,0-0.7,0c-0.2,0-0.4,0-0.6,0c-0.8-0.1-1.8-0.4-2.7-0.9c0,0,0.9,0.5,1.9,0.6
					c0.5,0.1,1,0.1,1.4,0.1c0.5,0,0.8,0,0.8,0c-0.9-0.1-1.5-0.2-2.2-0.4c-0.7-0.2-1.3-0.5-1.9-1c-1.3-0.9-2.4-2.4-2.5-4.5
					c0,0.2,0,0.9,0.2,1.6c0.2,0.7,0.6,1.6,1,2.2c0.5,0.6,0.9,1,0.9,1.2c0.1,0.1-0.4,0.1-1.3-0.7c-0.4-0.5-0.9-1.1-1.3-2
					c-0.2-0.4-0.4-0.9-0.5-1.4c-0.1-0.3-0.1-0.6-0.2-0.9c0-0.3-0.1-0.6-0.1-1c0.3,0,0.3-3.2,0.3-7.1l0.5,0.3
					c-0.1-4.2-0.4-3.9-0.6-6.4c0.1-4.7,0.4-5.7,0.7-6.8c0.1-7.5-0.6,5.2-0.7-3.7c0.2-6.3,0-10.7-0.3-18.2c0.2-4.4,0.3,0.8,0.4-0.8
					c0,0-0.1-1-0.2-1.9c0-0.4-0.1-0.8,0-1.1c0-0.3,0-0.5,0-0.5c0.2-0.8,0.3-0.5,0.3-0.3c0.1-0.6,0.3-1,0.3-1.2c0-0.2,0-0.3,0-0.4
					c0-0.1,0-0.3,0.2-0.7c0.2-0.4,0.6-1,1.4-1.7c0.2-0.3,0.8-0.8,1.7-1.1c0.5-0.2,1.1-0.3,1.7-0.3c0.3,0,0.6,0,1,0
					c0.4,0,0.8,0,1.2,0.1c3.3,0.2,7.2,0.4,10.3,0.1c1.6,0.1-0.8,0.3-0.3,0.5c8.8-0.4,7.5-0.3,14.7-0.8l6.1,0.3
					c-4.5-0.4,1.2-0.8,6.3-1.2c-1.6-0.2-3-0.3-3.9-0.4l8-0.3c1,0.1,0.2,0.3-1.2,0.5c0.5,0,1.1-0.1,1.5-0.1c2.9,0.2,1.4,0.5-0.7,0.8
					c-1-0.1-1.9-0.2-2.9-0.3c-2,0.3-3.8,0.6-3.4,0.9C49.2,7,50.2,7,51.3,6.9c-0.5,0.1-0.9,0.2-0.6,0.2C51,7.2,51.8,7.1,53.2,7
					L55,7.5l0.4-0.2l10.5,0.4C73.5,7.1,80,6.3,91.9,6c-3,0.4-0.6,0.7-0.8,1.2c-3.3-0.6-9.2,0.2-15.4,0.1c3.2,0.1,2.5,0.3,1.7,0.4
					l11-0.5c-0.2,0.4,2.3,0.3,5.2,0.5c-2.2-0.9,8.2-0.5,12.7-0.8c0.3,0.3-0.8,0.6-6.3,0.5c6,0.7,7.8-1,13.7-0.4
					c-1.3,0-2.1,0-2.6,0.1c3.1-0.3,10.8,0,9,0.2l-1.3,0c8.9,0.1,27,0.1,28.3-0.7c0.1,0.1-1.2,0.9-1.7,1.1l15.8-2.6
					c-1.4,0.7,4,2.3-3.4,2.7c2.1,0.1,4.7,0.2,9.2,0c-1.4-0.1-3.6-1-1.6-1.1c5.4,0.8,3.8,0.4,10.4,1.1c-2.2-0.2,0.2-1.2,3.7-1.2
					c-0.5,0.2,0.3,1.1-1,1.2l8.5-1.1c-2.1,0.2-0.4,0.9,1.5,1.2c-0.9-0.2,7.3,0,9.6-0.1l-3.6-0.3c9.6,0.2,9.5-1.5,19-1.5
					c-1.2,0.2-2.8,1.4,2,1.5c2.2-0.6,9.8-2.7,18.2-3.2l1.6,0.3l6.5-0.4c-4,0.9-15.3,2.7-21.5,3.4c3.6,0.3,1,0.4,6.4,0.4
					c1.9,0.3-2.9,0.5-4.5,0.5l12.5,0.2c-0.6-0.7,9.6-0.7,9.1-1.2l-13.6,0.7c-0.6-0.7,7.9-1.9,16.7-1.8c2.3,0.3-1.7,1.2-1.5,1.4
					c1.2-0.2,8.4-0.4,9.2-0.3l-3.8,0.4c4.9,0.3,8.1-0.9,14-0.3c2,0,6.1,0.8,6.5,0.5c-3.3-0.8-4-3.1-1.8-3.7
					c0.7,0.1,10.8,0.7,13.1,1.1c3.4,0.6-5.1,1.4-2.2,1.9c0.1-0.2,2-0.4,2.8-0.5c2.2,0.2-0.9,0.6,3.8,0.5c0.8-0.7,9.5,0,2.2-0.6
					c4.6-0.2,4.9,0.1,10.2,0.1c-1.7-0.4,4.8-1.4,9.4-1.6c-0.3,0.2,0.8,0.4,1.3,0.5c9.4,0.1,14.4,0.3,23.1,0.3c0.8,0.2,5,0.3,3.2,0.6
					c1.3-0.1,2.4-0.3,5.1-0.3c5.2,0.5-6,0.1-2,0.7c0.3-0.4,7-0.5,10.8-0.7c-1.2-0.5-8.9-0.1-12.7,0.1c0-0.8,6.7-1.6,15.8-1.9
					c7.3-0.2,3.1,0.5,4.4,0.4c13.6,0.1,11.6-1.2,22.9-0.7c4.5,0.5,0.2,0.9,1.2,1.2c-5.9,0.2-9.1-0.3-13.1-0.3l4.9,0.2
					c-1.9,0.1-5.8,0.3-8,0.1c3.8,0.4,23,0.1,33.6,0.4c1.9-0.1,5.1-0.3,3.6-0.4l-3.3,0.1c-3.1-0.3,6.3-0.4,2.1-0.6
					c4.5-0.2,9.5-0.5,15.8-0.3l1.2,0.4c-0.1-0.1-4.1-0.3-5.9-0.1c2.6-0.2,9.6,0.6,12.5,0.1L421.1,5c4.5-0.2,10-0.6,15.6-0.4
					c-2.5-0.4-1.3,0-5.2-0.5c3.4,0.6-14.3-0.2-8.7,0.5c-4.1-0.6-7-0.3-12.3-0.9c0.2,0.2,1.9,0.3-2.8,0.2c-0.2,0-0.7,0.1-1,0.1
					c-0.1,0-0.2,0-0.3,0c0.1,0,0.2,0,0.3,0c-0.2,0-0.2,0,0.1,0c1.1,0.1,2,0.2,2.4,0.2c-2.3,0.3-9.8,0.3-12.3,0.4
					c-2.8-0.1,1.2-0.2-0.4-0.4l-3.8,0.3c-0.4-0.4-7.4-0.6-0.8-0.8l-5.9-0.1c-3.5-0.2-8.2-0.4-11.2-0.2c-2.8-0.1-7,0.4-4.6,0.1
					l-9.2,0.2l-0.1-0.1c-9.1-0.1-18.7,0.6-29.2-0.2c-3.1,0.1-6.2,0.2-11.4,0.1l-1-0.4c-3.9,0.1-11.8-0.4-13.5,0
					c-4.2-1-19.1-0.3-26-0.5l-0.3,0.5c-4.8,0-9.3,0.1-15.3,0.3l0.4,0.4c-5.1,0.4-13.1-0.3-21.2-0.3c0.5-0.2,2.6-0.1,4,0
					c-9.6-1-20.3,0.7-29.1,0c-2.2,0.2-3.8,0.1-5.3,0c0.2,0,0.4,0,0.5,0c-0.2,0-0.6,0-0.9,0c-1-0.1-2-0.1-3-0.2
					c0.9,0.1,1.8,0.2,2.5,0.2c-1.7,0-4.2,0.1-6.7,0.2l-1.1-0.5c-0.2,0-0.4,0-0.6,0c-2.5-0.2-2,0.2-0.7,0.6c-1.3,0.1-2.4,0.2-3.3,0.3
					c-2-0.8-6.6,0.3-9.3-0.5c-1.7,0.4-12.6,0.3-13.9,1.1c-0.1-0.1-0.8-0.2,0.5-0.2c-2.8-0.1-5.6-0.2-8.1,0.1l-1.2-0.6L162,5
					c-3.7-0.3-5.2-0.5-1.6-1c-8.9,0.7-7.2,0.3-14.7,0.9l0.4-0.4c-2.7,0-7,0.5-8.6,0.2c-6-0.7-29.8,0-45.2-0.6c3,1-7.2-0.4-7.8,0.3
					c-0.9-0.2-3.1-0.4-0.6-0.6C76,4.2,72,3.7,66.6,4.3c-0.9-0.2,1.7-0.3,0.9-0.5c-0.6,0.1-2.5,0.2-3.3,0.1c-0.8-0.1,1.2-0.2,2.4-0.3
					c-8.1,0.1-8.9,0.8-9.5,1.4C53,4.7,51,4.8,48,5.2c-1.4-0.2-3.8-0.4,1.2-0.5c-2.8,0-17.2-0.3-17.5,0.2c-0.9-0.1-3.9,0-4.7,0
					c-6.3,0-6.9-0.1-13.1,0L15.7,5c-0.6,0.1-1.2,0.2-1.9,0.3c-0.7,0-1.4,0-2.3,0.1c-1.7,0.2-3.8,1-5.6,3.1l0.1-0.2
					C4.9,9.5,4.3,10.7,4,11.7c-0.3,1-0.4,1.8-0.4,2.5c0,1.2,0,1.8,0,2.4c0,1.2,0.1,2.4-0.2,8.1L3.8,24c0.8,1.1-0.4,10-0.1,16.6
					l0.2-2.4c0.3,3.6-1,10-1.1,13.6c-0.1,0.8-0.1-1.2-0.2-2.3c-0.4,9.4,0.5,1.2,0.6,8.3C3.1,58.5,2.9,58,2.8,58
					c-0.1,0-0.1,0.1-0.2,0.5c0,0.2,0,0.5-0.1,0.9c0,0.4,0,1,0.1,1.7c0.1,0.7,0.4,2.2,1.4,3.7c1,1.6,2.7,3.1,5,4
					c1.1,0.4,2.3,0.6,3.5,0.6c1,0,2.1,0,3.1-0.1c2,0,3.9,0,5.5,0.1c-1.4-0.2-2.8-0.4,0.4-0.5c5-0.1,13.5,0.7,18,0.1
					c0.6,0,0.9,0.1,0.9,0.1c3.8-0.2,12.4-0.3,14.7-0.6c3.5,1.1,23.8-0.6,23.7,0.4L90.8,69l-0.3,0.1c7.5,0,10.2-0.2,12.8-0.4
					c1.7,0.1,0.5,0.2,0.3,0.2c11,0.2,12.1,0.1,21.3-0.3l1,0.3c2.5-0.2,15.9,0.4,26.7,0.1c-0.1,0-0.3,0.1-1.2,0.1
					c12.1-0.3,29,0.7,33.5-0.3l8-0.2c-10.4-0.1,1.5-0.4-2.7-0.6c4.1-0.1,10.5,0.3,5.5,0.3l-0.8,0c-1.8,0.5,12.9,0.2,12.6,0.5
					c20.4,0,40.2,0.1,59.3,0.1l-2.2-0.3l6.7,0c1.7,0.1,2.3,0.2-2.4,0.2c1.2,0.1,3.2,0,4.9,0c1.7-0.1,3.1-0.2,3.2-0.2
					c9.3,0.1-3.6,0.4-0.8,0.4l3.9,0l-0.9,0c3.1-0.1,3.4-0.3,9.1-0.3c3.6,0.1,1.9,0.2,3.3,0.2c0,0,0.1,0,0.4,0c0.3,0,0.9,0,1.7,0
					l8.4,0l-3.4-0.2c3.7-0.1,7.9,0,4-0.3c5.7,0.4,31.3,0.1,34.8,0.2c5.2-0.2,10.3-0.2,16.7-0.2c-1.6,0-2.5-0.2,3-0.2
					c-2,0.4,10.1,0.1,14.5,0.4c-4-0.1,15.6-0.1,9.4-0.3c4.6,0,0.3,0.1,3.8,0.2c10.9-0.1,24,0,37.5-0.1c0.2,0-2-0.1,0.8-0.1l7.1,0.1
					c2.7,0,2.5-0.1,7.3-0.1c-0.7,0-1.7,0,0.1-0.1c26.4,0,54-0.1,80.8,0c-3.6,0-1.2,0,1.6,0c-1.8,0,0,0-0.3-0.1l11.2,0.1
					c2-0.1,12,0,13.2,0l-3.6,0c4.7-0.1-6.6-0.1-5.9-0.2c-5.3,0.1-14-0.1-22.6,0c-1.9,0,1.6,0,0.6,0c-2.2,0-4.9,0-9.8,0l0.6,0
					c-13.8,0-19.8,0-35.3-0.1l1.2,0c-3.3,0-4,0-5.6,0c-3.8,0.1,9.4,0,5.9,0.1c-4.4-0.1-23.6,0-26.6-0.2c-5.1,0,1.5,0.1-3.6,0.1
					l-1.4,0l-1.3,0c-3.4,0-5.1-0.1-5.2-0.1c0.8,0,2.3,0,3.2,0c-4.4-0.1-12.3,0-13.8-0.1l4.9,0c-14,0-31.2-0.2-44.7-0.1l1,0.1
					c-10.4,0.1-8.3-0.1-19.7-0.1l0.4,0c-2.3,0.1-5.3,0.1-8.4,0.1c2.9-0.1-5.4-0.2-1.6-0.2c-11.2,0.1-5.6,0.1-13,0.3l-1.7-0.1
					c-2.5,0.1-2.7,0.2-8.4,0.2c4.7-0.1-3.6-0.2,1.6-0.3c-11.9-0.3-17.7,0.2-23.1-0.2c-5.5,0.4,10.3,0.2,7.2,0.3
					c2.6,0.1-4.5,0.3-8.3,0.2c-3.8,0-6.5-0.5-16-0.6c1,0,1,0,2,0c-3.6-0.1-7,0.1-11.4-0.1c-2.5,0.3-5.7,0-6.4,0.3l8.8-0.1
					c-5,0.1-9.6,0.5-17.8,0.3c0.6-0.1,3.1-0.2,4.8-0.2c-2.4-0.1-4.6,0.1-7.1-0.1c0.7-0.4,10.7-0.1,16-0.3c-2.6-0.2-10.1,0.2-7.4-0.1
					c-3.9,0.5-9.4-0.1-15.9,0.3l0.4-0.2c-1,0-3.2,0.1-5,0.1l3.4-0.3c-5.2,0.2-10.1-0.2-15.1-0.1c10.5,0,2.4,0.3,6.8,0.5
					c-13,0.3-7.5-0.6-22-0.5c2,0,7.4,0.2,4.3,0.3c-2.8-0.1-6.4-0.2-8.1-0.3c-9.6,0,1.5,0.2-2.6,0.4c-3.3-0.3-4.7,0.1-9,0.2l0-0.2
					c-11-0.2-2.9,0.5-12.8,0.3l4.2-0.3l-5.2,0.1l1.1-0.3c-5.6,0.2-7.4,0.1-12.9,0c1.3,0.2-0.7,0.5-5.6,0.5c-3.3-0.2,1.9-0.2-5-0.2
					c1.6-0.2,3.3-0.4,6.3-0.1c0.3-0.1,1.5-0.2,1.9-0.2c-3.6-0.2-9-0.1-11.5-0.1c1,0,2.1,0,2.7,0.1l-10,0.3c-1.6-0.1-0.3-0.2,0.9-0.3
					c-2,0-3.4,0.1-6.4,0.2c0.8-0.2,0.6-0.5,4.8-0.5l-9.5,0.2c-0.6-0.1-4.9-0.3-3.7-0.4c-5.3-0.2-13,0.4-20,0.2
					c-0.4,0-1.1,0.1-2.6,0.1c-6.6-0.1-12.4-0.4-20.2-0.1l-4.4-0.4c-6.1,0.1,6,0.6-4.2,0.7c-7.2,0.1-2.7-0.4-5.2-0.5
					c-3.6,0.2-9.8,0.7-16.4,0.3C78.1,66.2,79.8,66.3,81.8,66.3z M8.2,64.4c0.4,0.4,1.2,0.9,2,1.2c0.8,0.3,1.5,0.4,2,0.6
					C10.7,66.4,9.6,65.9,8.2,64.4z M62.3,6.8c-1.1,0.1-2.8,0.1-4.7-0.1C59,6.7,60.6,6.7,62.3,6.8z M381.4,4c-0.1,0-0.1,0-0.2,0
					C378,3.9,379.1,3.9,381.4,4z M388.1,4.2c0.7-0.1,0.6-0.1,0.3-0.2c-0.5,0.1-2,0.1-3.7,0.1C385.2,4.2,386.1,4.3,388.1,4.2z
					 M292.3,68.7l-1.3,0C294,68.6,293.2,68.6,292.3,68.7z"/>
				<path fill="#F5AF19" d="M49.3,7.3c-0.4-0.1-0.5-0.1-0.6-0.2C48.1,7.1,48.1,7.2,49.3,7.3z"/>
				<path fill="#F5AF19" d="M128.7,66.3l0.2,0c0.1,0,0.2,0,0.2-0.1L128.7,66.3z"/>
				<path fill="#F5AF19" d="M283.4,7.9c-1.4-0.1-2.2-0.2-2.7-0.2C280.6,7.7,281.2,7.8,283.4,7.9z"/>
				<path fill="#F5AF19" d="M424,3.9l-4.3,0c2.1,0,2.8,0.1,3.9,0.1C423.4,4,422.6,3.9,424,3.9z"/>
				<path fill="#F5AF19" d="M461.6,6c0.6,0,1.3,0,2,0l-0.2-0.1C460.7,5.8,458.8,5.9,461.6,6z"/>
				<path fill="#F5AF19" d="M428,5c0.3,0.3,3.1,0.2,6.1,0.2c-0.2,0-0.4,0-0.5,0C434.4,4.8,431.2,4.9,428,5z"/>
				<path fill="#F5AF19" d="M434.8,5.2c0.9,0,1.9,0,2.8,0C437.9,5.1,436.4,5.2,434.8,5.2z"/>
				<path fill="#F5AF19" d="M396.7,4.1c1.4,0.1,0.9-0.4,1.7-0.3C400,3.4,388.8,4.2,396.7,4.1z"/>
				<polygon fill="#F5AF19" points="430.4,5.9 429.3,5.6 427.6,5.9 				"/>
				<path fill="#F5AF19" d="M406.5,5.7l4.8,0.1c-0.1-0.1,0.5-0.1,1.3-0.1C409.6,5.6,406.4,5.6,406.5,5.7z"/>
				<path fill="#F5AF19" d="M412.6,5.7c1.6,0,3,0,3.9-0.1C415.7,5.6,413.9,5.6,412.6,5.7z"/>
				<polygon fill="#F5AF19" points="423.8,6 422.4,6 418.9,5.9 				"/>
				<path fill="#F5AF19" d="M354.4,5.5l-5.3,0.1c-0.5,0.2,0.9,0.2,2.9,0.2C353.2,5.7,355.2,5.7,354.4,5.5z"/>
				<path fill="#F5AF19" d="M370.4,6.7c-1.4-0.1-1.5-0.2-2.3-0.3l-0.2,0.5L370.4,6.7z"/>
				<path fill="#F5AF19" d="M354.9,6.9c-0.5,0.2-7.7,0.5-1,0.4C354.5,7.1,359.8,7,354.9,6.9z"/>
				<polygon fill="#F5AF19" points="275.2,6.2 276.5,6.2 276.3,5.2 				"/>
				<path fill="#F5AF19" d="M204.9,8.6c6.3,0.2,1.5-0.6,7.2-0.3c1.5-0.2-4.6-0.2-3.1-0.5C205.2,8.1,203.2,7.9,204.9,8.6z"/>
				<path fill="#F5AF19" d="M209,7.8c0.6,0,1.2-0.1,1.9-0.1C209.8,7.7,209.3,7.8,209,7.8z"/>
				<polygon fill="#F5AF19" points="538.5,68.1 542.5,68.1 539.9,68.1 				"/>
				<path fill="#F5AF19" d="M546.2,68l0.9,0.1l2.4-0.1C548.7,68.1,547,68.1,546.2,68z"/>
				<path fill="#F5AF19" d="M7,55.1l-0.1-0.3c-0.1,0.6-0.1,1.6-0.2,3.5L7,55.1z"/>
				<polygon fill="#F5AF19" points="50,65.9 49,65.9 50.8,66.3 				"/>
				<path fill="#F5AF19" d="M95.9,65.5c-1.9,0-4.1,0-6,0C94,65.5,96.4,66,95.9,65.5z"/>
			</g>
		</g>
	</g>
</g>
<g>
	<path fill="#E53020" stroke="#E53020" stroke-width="2" stroke-miterlimit="10" d="M31.5,16l0.6,6.3c0.1,1,0.2,3,0.4,6.1
		c0.2,3.1,0.3,5.5,0.3,7.1c0,1.7-0.1,3.8-0.2,6.3c-0.1,2.6-0.3,4.9-0.7,6.9c-0.4,2-0.9,4-1.5,5.9c-0.7,2-1.8,3.7-3.2,5.1
		c-1.5,1.4-3.1,2.4-5,2.9c-1.9,0.5-3.8,0.3-5.6-0.4c-1.8-0.7-3.3-2.1-4.5-4.2c-0.1-0.3-0.2-0.5-0.1-0.9s0.2-0.6,0.5-0.7
		c0.3-0.1,0.6-0.2,0.9-0.1c0.3,0.1,0.6,0.2,0.7,0.5c0.9,1.5,1.9,2.6,3.3,3.1c1.3,0.6,2.7,0.6,4.2,0.3c1.5-0.4,2.8-1.1,4-2.3
		c1.2-1.1,2.1-2.5,2.6-4.2c0.7-2,1.2-4.4,1.6-7.2c0.4-2.7,0.6-5.1,0.7-7.2c0.1-2.1,0-4.8-0.1-8.3c-0.2-3.4-0.3-5.9-0.4-7.3
		c-0.1-1.5-0.4-4-0.7-7.6c0-0.4,0-0.7,0.3-0.9c0.2-0.2,0.5-0.4,0.8-0.4c0.3,0,0.6,0,0.8,0.3C31.3,15.3,31.5,15.6,31.5,16z"/>
	<path fill="#E53020" stroke="#E53020" stroke-width="2" stroke-miterlimit="10" d="M50.1,15c0.3-0.2,0.6-0.3,1-0.1
		c4,1.2,7,4.5,9.2,9.9c1.9,4.8,2.8,10.1,2.6,16.1c-0.2,6.1-1.5,11-3.8,14.7c-2.7,4.5-6.4,6.4-11,5.7c-1.9-0.3-3.6-0.9-5.1-1.9
		c-1.5-0.9-2.6-2.1-3.5-3.6c-0.9-1.5-1.5-3-2-4.6c-0.5-1.6-0.8-3.4-0.9-5.3c-0.3-3.4-0.1-7,0.5-10.7c0.7-3.7,1.5-6.8,2.6-9.4
		c1.3-2.9,2.4-5.2,3.4-6.7c2-3,4.2-4.4,6.6-4.3C49.8,14.9,50,15,50.1,15z M49.6,17.2c-1.5-0.1-3,1-4.5,3.3c-0.9,1.3-1.9,3.4-3.1,6.2
		c-1,2.4-1.8,5.4-2.4,8.9c-0.6,3.5-0.8,6.8-0.6,10c0.6,8,3.8,12.4,9.5,13.2c3.6,0.6,6.5-1,8.6-4.6c2.1-3.4,3.2-7.9,3.5-13.6
		c0.2-5.6-0.6-10.7-2.4-15.1c-1.9-4.7-4.5-7.6-7.7-8.6h-0.1C50.1,17.2,49.8,17.2,49.6,17.2z"/>
	<path fill="#E53020" stroke="#E53020" stroke-width="2" stroke-miterlimit="10" d="M67.9,16.4l2.5-0.3c1.3-0.2,2.2-0.3,2.7-0.4
		c0.5-0.1,1.3-0.2,2.5-0.3c1.1-0.1,2-0.2,2.8-0.3c0.7-0.1,1.5-0.1,2.5-0.2c0.9,0,1.8-0.1,2.7-0.1c0.3,0,0.6,0.1,0.8,0.4
		c0.2,0.2,0.4,0.5,0.4,0.8c0,0.3-0.1,0.6-0.4,0.8c-0.2,0.2-0.5,0.4-0.8,0.4c-2.8,0-7.8,0.5-15,1.5c0,1.7,0,4.5-0.1,8.5
		c-0.1,3.9-0.1,7-0.1,9.1c4.9,0,9.7-0.3,14.2-0.8c0.3,0,0.6,0,0.8,0.2c0.3,0.2,0.4,0.4,0.4,0.8c0,0.3,0,0.6-0.2,0.9
		c-0.2,0.3-0.5,0.4-0.8,0.4c-4.6,0.6-9.4,0.8-14.5,0.8c0.1,8.2,0.7,15.1,1.9,20.9c6.5,0.4,12.3-0.1,17.5-1.5
		c0.3-0.1,0.6-0.1,0.9,0.1c0.3,0.1,0.5,0.4,0.5,0.7c0.1,0.3,0.1,0.6-0.1,0.9c-0.1,0.3-0.4,0.5-0.7,0.5c-5.6,1.6-11.9,2.2-18.8,1.6
		c-0.1,0-0.2,0-0.3-0.1c-0.6,0-1-0.3-1.2-0.9c-0.7-3.3-1.2-7-1.5-11.1C66.2,45.4,66,42,66,39.3c0-2.7,0-6.5,0.1-11.6
		c0.1-5.1,0.1-8.5,0.1-10.3c0-0.3,0.1-0.6,0.4-0.8c0.2-0.2,0.5-0.4,0.8-0.4C67.5,16.3,67.7,16.3,67.9,16.4z"/>
	<path fill="#E53020" stroke="#E53020" stroke-width="2" stroke-miterlimit="10" d="M97.7,18.8l1.7,5.2c0.6,1.9,1.3,3.7,1.9,5.3
		c1.2,3.2,2.2,5.6,3.1,7.2c0.5,0.9,1,1.6,1.4,2.1c0.2,0.2,0.3,0.3,0.4,0.4c0.3-0.1,0.6-0.3,0.9-0.6c0.5-0.5,1.1-1.2,1.7-2.2
		c1-1.6,2.1-3.9,3.5-7c0.7-1.7,1.4-3.5,2-5.2c0.7-1.8,1.4-3.6,1.9-5.2c0.6-1.6,0.9-2.6,1.1-3c0.1-0.3,0.3-0.4,0.6-0.6
		c0.3-0.1,0.6-0.1,0.9,0c0.3,0.1,0.5,0.3,0.6,0.6c0.1,0.3,0.1,0.6,0.1,0.9c-0.2,0.4-0.5,1.4-1.1,2.9l-1.9,5.2
		c-0.7,1.8-1.4,3.5-2.1,5.2c-1.4,3.2-2.6,5.6-3.6,7.4c-0.7,1.1-1.3,2-1.9,2.6c-0.5,0.5-0.9,0.8-1.4,1c0.4,5.8,0.4,12-0.2,18.8
		c0,0.3-0.2,0.6-0.4,0.8c-0.2,0.2-0.5,0.3-0.8,0.3c-0.3,0-0.6-0.2-0.8-0.4c-0.2-0.2-0.3-0.5-0.3-0.8c0.6-6.7,0.6-12.9,0.2-18.6
		c-0.3-0.2-0.7-0.4-1-0.8c-0.5-0.6-1.1-1.4-1.7-2.5c-1-1.7-2.1-4.3-3.3-7.6c-0.6-1.7-1.3-3.5-1.9-5.4l-1.7-5.2l-0.9-2.8
		c-0.1-0.3-0.1-0.6,0.1-0.9c0.1-0.3,0.3-0.5,0.6-0.6c0.3-0.1,0.6-0.1,0.9,0.1c0.3,0.1,0.5,0.3,0.6,0.6
		C96.9,16.3,97.2,17.2,97.7,18.8z"/>
	<path fill="#E53020" stroke="#E53020" stroke-width="2" stroke-miterlimit="10" d="M129.1,13.4c0.3,3.8-1.6,7.4-5.8,10.9
		c-0.3,0.2-0.5,0.3-0.9,0.3c-0.3,0-0.6-0.2-0.8-0.4c-0.2-0.2-0.3-0.5-0.3-0.8c0-0.3,0.2-0.6,0.4-0.8c3.6-3,5.2-6,5-9
		c0-0.3,0-0.6,0.3-0.8c0.2-0.2,0.5-0.4,0.8-0.4c0.3,0,0.6,0,0.8,0.3C128.9,12.8,129,13.1,129.1,13.4z"/>
	<path fill="#E53020" stroke="#E53020" stroke-width="2" stroke-miterlimit="10" d="M151.3,28.3c0-0.1,0-0.3-0.1-0.6
		c-0.3-1.7-0.4-2.9-0.5-3.5c-0.2-0.8-0.5-1.7-1-2.8c-0.5-1-1.1-1.9-2-2.6c-1-0.9-2.2-1.4-3.6-1.4c-1.5-0.1-2.9,0.2-4.2,0.9
		c-1.4,0.6-2.6,1.5-3.5,2.7c-0.9,1.1-1.5,2.3-1.5,3.6c-0.2,2.2,0.7,4.5,2.7,7.1c1.2,1.5,3.5,3.9,7,7.2c3.5,3.2,5.8,5.8,7.2,7.7
		c2.2,3.1,3.2,6.1,2.8,9.1c-0.4,3.1-1.8,5.1-4.2,6c-2,0.7-4.5,0.6-7.3-0.4c-2.6-1-4.9-2.5-7.1-4.6c-2.2-2.1-3.5-4.4-4.1-6.8
		c0-0.3,0-0.6,0.2-0.9c0.2-0.3,0.4-0.4,0.7-0.5c0.3-0.1,0.6,0,0.9,0.2c0.3,0.2,0.5,0.4,0.5,0.7c0.4,2,1.6,3.9,3.4,5.8
		c1.9,1.8,4,3.2,6.3,4c2.3,0.9,4.1,1,5.6,0.4c1.5-0.6,2.4-1.9,2.7-4c0.3-2.3-0.5-4.8-2.4-7.5c-1.3-1.7-3.6-4.2-6.9-7.4
		c-3.6-3.4-6.1-5.9-7.3-7.5c-2.3-3-3.4-5.9-3.1-8.6c0.1-1.7,0.8-3.3,2-4.8c1.2-1.5,2.7-2.6,4.4-3.4c1.6-0.8,3.3-1.2,5.3-1.1
		c2,0.1,3.6,0.7,5.1,1.9c0.3,0.3,0.7,0.6,1,1c0.3,0.4,0.6,0.7,0.8,1c0.2,0.3,0.4,0.7,0.6,1.1l0.5,1.1c0.1,0.3,0.3,0.6,0.4,1.2
		c0.1,0.5,0.2,0.9,0.3,1.1c0.1,0.2,0.1,0.6,0.3,1.2c0.1,0.6,0.2,1,0.2,1.1c0,0.2,0.1,0.6,0.1,1.2c0.1,0.6,0.1,1,0.2,1.1
		c0,0.3,0,0.6-0.2,0.8c-0.2,0.3-0.4,0.4-0.8,0.4c-0.3,0-0.6,0-0.9-0.2C151.5,28.9,151.4,28.7,151.3,28.3z"/>
	<path fill="#E53020" stroke="#E53020" stroke-width="2" stroke-miterlimit="10" d="M177.5,16.9c2,14.6,3.9,25.5,5.6,32.8
		c0.1,0.2,0.2,0.6,0.3,1.2c0.1,0.6,0.3,1.3,0.4,2c0.2,0.7,0.3,1.4,0.5,2c0.3,1.2,0.6,2.2,0.9,2.9c0.3,0.7,0.5,1.1,0.7,1.3l0.3-0.3
		c0.4-0.6,0.9-1.5,1.5-2.9c0.5-1.3,1.1-3.3,1.9-6.1c0.3-1.4,1-4,2-7.9l2.4-8.9l1.9-7.7c0.8-3.1,1.4-6,2-8.6c0.1-0.3,0.3-0.5,0.5-0.7
		c0.3-0.2,0.6-0.2,0.9-0.2c0.3,0.1,0.5,0.2,0.7,0.5c0.2,0.3,0.2,0.6,0.2,0.9l-2,8.6c-0.8,3.2-1.4,5.7-2,7.7l-2.3,8.8l-2.2,8
		c-0.9,3.1-1.5,5.2-1.9,6.3c-0.6,1.6-1.2,2.8-1.9,3.5c-0.5,0.6-1,0.9-1.5,1.1c-0.7,0.2-1.4,0.1-2-0.4c-0.5-0.4-1-1.2-1.4-2.3
		c-0.3-0.9-0.7-1.9-1-3.2c-0.2-0.6-0.3-1.3-0.5-2c-0.2-0.7-0.3-1.4-0.4-2s-0.2-1-0.3-1.2c-1.7-7-3.6-18-5.8-33c0-0.3,0-0.6,0.2-0.8
		c0.2-0.3,0.4-0.4,0.8-0.4c0.3,0,0.6,0,0.9,0.2C177.3,16.2,177.5,16.5,177.5,16.9z"/>
	<path fill="#E53020" stroke="#E53020" stroke-width="2" stroke-miterlimit="10" d="M206.2,17c-0.5,3.7-0.8,7.4-0.9,11.2
		c-0.1,3.8,0,7.7,0.4,11.8c0.3,4.1,1,7.7,1.9,10.9c0.8,2.7,1.8,4.8,3.2,6.3c1.6,1.8,3.4,2.3,5.4,1.4c2-0.9,3.6-3,4.9-6.5
		c1.2-3.1,2-7.1,2.5-12.2c0.7-6.5,0.8-14.2,0.4-23.1c0-0.3,0.1-0.6,0.3-0.9c0.2-0.2,0.5-0.4,0.8-0.4s0.6,0.1,0.8,0.3
		c0.2,0.2,0.4,0.5,0.4,0.8c0.4,9,0.2,16.9-0.4,23.4c-0.6,5.2-1.5,9.5-2.7,12.7c-1.5,4.1-3.5,6.8-6.1,7.9c-3,1.3-5.7,0.6-8.1-2
		c-1.6-1.7-2.8-4.1-3.6-7.2c-0.9-3.3-1.6-7.1-1.9-11.3c-0.4-4.2-0.5-8.3-0.4-12.2c0.1-3.8,0.4-7.6,0.8-11.4c0-0.3,0.2-0.6,0.4-0.8
		c0.3-0.2,0.5-0.3,0.9-0.2c0.3,0,0.6,0.2,0.8,0.4C206.1,16.4,206.2,16.7,206.2,17z"/>
	<path fill="#E53020" stroke="#E53020" stroke-width="2" stroke-miterlimit="10" d="M233.4,17c-0.5,3.7-0.8,7.4-0.9,11.2
		c-0.1,3.8,0,7.7,0.4,11.8c0.3,4.1,1,7.7,1.9,10.9c0.8,2.7,1.8,4.8,3.2,6.3c1.6,1.8,3.4,2.3,5.4,1.4c2-0.9,3.6-3,4.9-6.5
		c1.2-3.1,2-7.1,2.5-12.2c0.7-6.5,0.8-14.2,0.4-23.1c0-0.3,0.1-0.6,0.3-0.9c0.2-0.2,0.5-0.4,0.8-0.4s0.6,0.1,0.8,0.3
		c0.2,0.2,0.4,0.5,0.4,0.8c0.4,9,0.2,16.9-0.4,23.4c-0.6,5.2-1.5,9.5-2.7,12.7c-1.5,4.1-3.5,6.8-6.1,7.9c-3,1.3-5.7,0.6-8.1-2
		c-1.6-1.7-2.8-4.1-3.6-7.2c-0.9-3.3-1.6-7.1-1.9-11.3c-0.4-4.2-0.5-8.3-0.4-12.2c0.1-3.8,0.4-7.6,0.8-11.4c0-0.3,0.2-0.6,0.4-0.8
		c0.3-0.2,0.5-0.3,0.9-0.2c0.3,0,0.6,0.2,0.8,0.4C233.4,16.4,233.5,16.7,233.4,17z"/>
	<path fill="#E53020" stroke="#E53020" stroke-width="2" stroke-miterlimit="10" d="M261.6,40.4c4.4,5.8,10.1,11.9,17.1,18.6
		c0.3,0.2,0.4,0.5,0.4,0.8c0,0.3-0.1,0.6-0.3,0.8c-0.2,0.2-0.5,0.4-0.8,0.4c-0.3,0-0.6-0.1-0.8-0.3c-7.1-6.7-12.9-12.9-17.3-18.8
		c0,6.7,0.3,12.6,0.8,17.7c0,0.3,0,0.6-0.3,0.9c-0.2,0.2-0.5,0.4-0.8,0.4c-0.3,0-0.6,0-0.8-0.3c-0.2-0.2-0.4-0.5-0.4-0.8
		c-0.6-5.8-0.8-12.9-0.8-21.2c0-2.2,0-5.1,0.1-8.8c-0.2-0.3-0.2-0.6-0.1-0.9l0.1-0.6c0.1-4.9,0.1-8.5,0.1-10.9
		c0-0.3,0.1-0.6,0.4-0.8c0.2-0.2,0.5-0.4,0.8-0.4c0.3,0,0.6,0.1,0.8,0.4c0.2,0.2,0.4,0.5,0.4,0.8c0,1.8,0,4-0.1,6.5
		c1.3-1.9,2.8-3.6,4.5-5.1c1.9-1.7,3.8-2.9,5.6-3.5c2.3-0.7,4.2-0.5,5.9,0.7c1.5,1.1,2.2,2.9,2.2,5.4c0,4.1-2,8.1-5.9,12.1
		C269,36.9,265.4,39.1,261.6,40.4z M260.1,38.4c3.7-1,7.2-3.1,10.5-6.4c3.5-3.5,5.2-7,5.2-10.5c0-1.7-0.4-2.9-1.2-3.5
		c-1.1-0.8-2.4-0.9-3.9-0.4c-1.5,0.5-3.1,1.5-4.7,2.9c-1.4,1.2-2.6,2.6-3.7,4.1c-1.1,1.5-1.9,2.8-2.4,4c0,4.2-0.1,7.4-0.1,9.7
		L260.1,38.4z"/>
	<path fill="#E53020" stroke="#E53020" stroke-width="2" stroke-miterlimit="10" d="M284.1,16.7c2,14.6,3.9,25.5,5.6,32.8
		c0,0.1,0.1,0.5,0.3,1l0.3,1.5c0.3,1.5,0.7,2.7,1,3.6c0.4,1.3,0.9,2.3,1.3,2.9c0.1,0.2,0.3,0.3,0.4,0.4c0.1-0.1,0.2-0.3,0.3-0.6
		c0.3-0.5,0.5-1.2,0.8-2c0.1-0.4,0.5-1.5,1-3.3c0.6-1.8,1.2-3.7,1.9-5.6l1.8-4.9l2.2-5.8l2-5.2c0-0.3,0.1-0.6,0.4-0.9
		c0.4-0.4,0.8-0.5,1.3-0.3c0.6,0.2,0.9,0.6,0.8,1.3l8.5,21.1c0,0,0.1,0.3,0.3,0.8l0.6,1.5l0.7,1.7c0.4,0.9,0.8,1.6,1.2,2.1l0.1-0.3
		c0.3-0.7,0.7-1.8,1.1-3.2c0.1-0.4,0.6-2.3,1.5-5.6c2-7.8,4.2-19.3,6.6-34.5c0-0.3,0.2-0.5,0.4-0.7s0.5-0.3,0.9-0.2
		c0.3,0,0.6,0.2,0.8,0.4c0.2,0.3,0.3,0.6,0.2,0.9c-2.4,15.3-4.7,26.8-6.7,34.6c-0.8,3.3-1.3,5.2-1.5,5.8c-0.4,1.5-0.8,2.6-1.2,3.4
		c-0.3,0.6-0.5,1-0.7,1.3c-0.4,0.6-0.9,0.9-1.5,0.9c-0.4,0-0.8-0.2-1.2-0.6c-0.3-0.2-0.5-0.5-0.8-0.9c-0.3-0.6-0.7-1.4-1.2-2.4
		c-0.3-0.5-0.5-1.1-0.7-1.7l-0.6-1.6c-0.2-0.5-0.3-0.7-0.4-0.8l-7.6-18.8c-3.5,8.9-5.8,15.2-6.9,18.9c-0.6,1.9-0.9,3-1,3.4
		c-0.3,0.9-0.6,1.7-0.9,2.3c-0.2,0.4-0.3,0.7-0.4,0.9c-0.3,0.4-0.5,0.7-0.8,0.8c-0.6,0.3-1.3,0.4-2,0.1c-0.5-0.2-1-0.6-1.4-1.2
		c-0.6-0.8-1.2-2-1.7-3.5c-0.3-1.1-0.7-2.4-1-3.9l-0.3-1.5c-0.1-0.6-0.2-0.9-0.2-1c-1.7-7-3.6-18-5.8-33c0-0.3,0-0.6,0.2-0.8
		c0.2-0.3,0.4-0.4,0.8-0.4c0.3,0,0.6,0,0.9,0.2C283.9,16.1,284.1,16.4,284.1,16.7z"/>
	<path fill="#E53020" stroke="#E53020" stroke-width="2" stroke-miterlimit="10" d="M333,16.4l2.5-0.3c1.3-0.2,2.2-0.3,2.7-0.4
		c0.5-0.1,1.3-0.2,2.5-0.3c1.1-0.1,2-0.2,2.8-0.3c0.7-0.1,1.5-0.1,2.5-0.2c0.9,0,1.8-0.1,2.7-0.1c0.3,0,0.6,0.1,0.8,0.4
		c0.2,0.2,0.4,0.5,0.4,0.8c0,0.3-0.1,0.6-0.4,0.8c-0.2,0.2-0.5,0.4-0.8,0.4c-2.8,0-7.8,0.5-15,1.5c0,1.7,0,4.5-0.1,8.5
		c-0.1,3.9-0.1,7-0.1,9.1c4.9,0,9.7-0.3,14.2-0.8c0.3,0,0.6,0,0.8,0.2c0.3,0.2,0.4,0.4,0.4,0.8c0,0.3,0,0.6-0.2,0.9
		c-0.2,0.3-0.5,0.4-0.8,0.4c-4.6,0.6-9.4,0.8-14.5,0.8c0.1,8.2,0.7,15.1,1.9,20.9c6.5,0.4,12.3-0.1,17.5-1.5
		c0.3-0.1,0.6-0.1,0.9,0.1c0.3,0.1,0.5,0.4,0.5,0.7c0.1,0.3,0.1,0.6-0.1,0.9c-0.2,0.3-0.4,0.5-0.7,0.5c-5.6,1.6-11.9,2.2-18.8,1.6
		c-0.1,0-0.2,0-0.3-0.1c-0.6,0-1-0.3-1.2-0.9c-0.7-3.3-1.2-7-1.5-11.1c-0.3-4.1-0.5-7.5-0.5-10.1c0-2.7,0-6.5,0.1-11.6
		c0.1-5.1,0.1-8.5,0.1-10.3c0-0.3,0.1-0.6,0.4-0.8c0.2-0.2,0.5-0.4,0.8-0.4C332.7,16.3,332.8,16.3,333,16.4z"/>
	<path fill="#E53020" stroke="#E53020" stroke-width="2" stroke-miterlimit="10" d="M362.2,40.4c4.4,5.8,10.1,11.9,17.1,18.6
		c0.3,0.2,0.4,0.5,0.4,0.8c0,0.3-0.1,0.6-0.3,0.8c-0.2,0.2-0.5,0.4-0.8,0.4c-0.3,0-0.6-0.1-0.8-0.3c-7.1-6.7-12.9-12.9-17.3-18.8
		c0,6.7,0.3,12.6,0.8,17.7c0,0.3,0,0.6-0.3,0.9c-0.2,0.2-0.5,0.4-0.8,0.4c-0.3,0-0.6,0-0.8-0.3c-0.2-0.2-0.4-0.5-0.4-0.8
		c-0.6-5.8-0.8-12.9-0.8-21.2c0-2.2,0-5.1,0.1-8.8c-0.2-0.3-0.2-0.6-0.1-0.9l0.1-0.6c0.1-4.9,0.1-8.5,0.1-10.9
		c0-0.3,0.1-0.6,0.4-0.8c0.2-0.2,0.5-0.4,0.8-0.4c0.3,0,0.6,0.1,0.8,0.4c0.2,0.2,0.4,0.5,0.4,0.8c0,1.8,0,4-0.1,6.5
		c1.3-1.9,2.8-3.6,4.5-5.1c1.9-1.7,3.8-2.9,5.6-3.5c2.3-0.7,4.2-0.5,5.9,0.7c1.5,1.1,2.2,2.9,2.2,5.4c0,4.1-2,8.1-5.9,12.1
		C369.6,36.9,366,39.1,362.2,40.4z M360.7,38.4c3.7-1,7.2-3.1,10.5-6.4c3.5-3.5,5.2-7,5.2-10.5c0-1.7-0.4-2.9-1.2-3.5
		c-1.1-0.8-2.4-0.9-3.9-0.4c-1.5,0.5-3.1,1.5-4.7,2.9c-1.4,1.2-2.6,2.6-3.7,4.1c-1.1,1.5-1.9,2.8-2.4,4c0,4.2-0.1,7.4-0.1,9.7
		L360.7,38.4z"/>
	<path fill="#E53020" stroke="#E53020" stroke-width="2" stroke-miterlimit="10" d="M390.7,28.9c4.3-1.2,7.9-1,10.8,0.8
		c4.4,2.6,7.1,7.3,8.3,14c1,5.7,0.7,11.1-1,16.3c-0.1,0.3-0.3,0.5-0.5,0.7c-0.3,0.1-0.6,0.2-0.9,0.1c-0.3-0.1-0.5-0.3-0.7-0.5
		c-0.1-0.3-0.2-0.6-0.1-0.9c1.5-4.9,1.8-10,0.8-15.3c-1-6-3.3-10.1-7.1-12.4c-1.6-0.8-3.3-1.2-5.2-1.1s-3.7,0.5-5.5,1.2
		c-0.4,0.2-1.2,0.7-2.2,1.5l-1,0.8h-0.1c0.1,12.5,0.1,21,0.1,25.7c0,0.3-0.1,0.6-0.4,0.8c-0.2,0.2-0.5,0.4-0.8,0.4
		c-0.3,0-0.6-0.1-0.8-0.4c-0.2-0.2-0.4-0.5-0.4-0.8c0-4.9,0-12.3-0.1-22.1c-0.1-9.9-0.1-17.2-0.1-22.1c0-0.3,0.1-0.6,0.4-0.8
		c0.2-0.2,0.5-0.4,0.8-0.4s0.6,0.1,0.8,0.4c0.2,0.2,0.4,0.5,0.4,0.8c0,4.1,0,9.1,0.1,14.9l6.3-7.6c2.9-3.5,5.1-6.1,6.7-7.9
		c0.2-0.3,0.5-0.4,0.8-0.4c0.3,0,0.6,0.1,0.8,0.3c0.3,0.2,0.4,0.5,0.4,0.8c0,0.3-0.1,0.6-0.3,0.8l-3.3,3.9L394,25
		C392.6,26.8,391.6,28.1,390.7,28.9z"/>
	<path fill="#E53020" stroke="#E53020" stroke-width="2" stroke-miterlimit="10" d="M432.6,28.3c0-0.1,0-0.3-0.1-0.6
		c-0.3-1.7-0.4-2.9-0.5-3.5c-0.2-0.8-0.5-1.7-1-2.8c-0.5-1-1.1-1.9-2-2.6c-1-0.9-2.2-1.4-3.6-1.4c-1.5-0.1-2.9,0.2-4.2,0.9
		c-1.4,0.6-2.6,1.5-3.5,2.7c-0.9,1.1-1.5,2.3-1.5,3.6c-0.2,2.2,0.7,4.5,2.7,7.1c1.2,1.5,3.5,3.9,7,7.2c3.5,3.2,5.8,5.8,7.2,7.7
		c2.2,3.1,3.2,6.1,2.8,9.1c-0.4,3.1-1.8,5.1-4.2,6c-2,0.7-4.5,0.6-7.3-0.4c-2.6-1-4.9-2.5-7.1-4.6s-3.5-4.4-4.1-6.8
		c0-0.3,0-0.6,0.2-0.9c0.2-0.3,0.4-0.4,0.7-0.5s0.6,0,0.9,0.2c0.3,0.2,0.5,0.4,0.5,0.7c0.4,2,1.6,3.9,3.4,5.8c1.9,1.8,4,3.2,6.3,4
		c2.3,0.9,4.1,1,5.6,0.4c1.5-0.6,2.4-1.9,2.7-4c0.3-2.3-0.5-4.8-2.4-7.5c-1.3-1.7-3.6-4.2-6.9-7.4c-3.6-3.4-6.1-5.9-7.3-7.5
		c-2.3-3-3.3-5.9-3.1-8.6c0.1-1.7,0.8-3.3,2-4.8c1.2-1.5,2.7-2.6,4.4-3.4c1.6-0.8,3.3-1.2,5.3-1.1c2,0.1,3.6,0.7,5.1,1.9
		c0.3,0.3,0.7,0.6,1,1c0.3,0.4,0.6,0.7,0.8,1c0.2,0.3,0.4,0.7,0.6,1.1l0.5,1.1c0.1,0.3,0.3,0.6,0.4,1.2c0.1,0.5,0.2,0.9,0.3,1.1
		c0.1,0.2,0.1,0.6,0.3,1.2c0.1,0.6,0.2,1,0.2,1.1c0,0.2,0.1,0.6,0.1,1.2c0.1,0.6,0.1,1,0.2,1.1c0,0.3,0,0.6-0.2,0.8
		c-0.2,0.3-0.4,0.4-0.8,0.4c-0.3,0-0.6,0-0.9-0.2C432.8,28.9,432.6,28.7,432.6,28.3z"/>
	<path fill="#E53020" stroke="#E53020" stroke-width="2" stroke-miterlimit="10" d="M458.5,14.9c-0.9,17.2-0.6,32,1.2,44.6
		c0,0.3,0,0.6-0.2,0.8c-0.2,0.3-0.4,0.4-0.8,0.4c-0.3,0-0.6,0-0.9-0.2c-0.3-0.2-0.4-0.5-0.4-0.8c-0.9-6.7-1.4-14-1.5-22.1
		c-4.5,0.5-9.2,0.8-14.1,0.8c0.1,8.5,0.8,15.7,2,21.6c0,0.3,0,0.6-0.2,0.9c-0.2,0.3-0.4,0.4-0.7,0.5s-0.6,0-0.9-0.2
		c-0.3-0.2-0.4-0.4-0.5-0.7c-0.7-3.3-1.2-7-1.5-11.1c-0.3-4.1-0.5-7.5-0.5-10.1c0-2.7,0-6.5,0.1-11.6c0.1-5.1,0.1-8.5,0.1-10.3
		c0-0.3,0.1-0.6,0.4-0.8c0.2-0.2,0.5-0.4,0.8-0.4c0.3,0,0.6,0.1,0.8,0.4c0.2,0.2,0.4,0.5,0.4,0.8c0,2,0,5.1-0.1,9.3
		c-0.1,4.2-0.1,7.3-0.1,9.5c4.9,0,9.5-0.3,14-0.8c-0.1-6.8,0.1-13.6,0.4-20.5c0-0.3,0.1-0.6,0.4-0.8c0.3-0.2,0.5-0.3,0.8-0.3
		c0.3,0,0.6,0.1,0.8,0.4C458.4,14.4,458.5,14.6,458.5,14.9z"/>
	<path fill="#E53020" stroke="#E53020" stroke-width="2" stroke-miterlimit="10" d="M476.8,15c0.3-0.2,0.6-0.3,1-0.1
		c4,1.2,7,4.5,9.2,9.9c1.9,4.8,2.8,10.1,2.6,16.1c-0.2,6.1-1.5,11-3.8,14.7c-2.7,4.5-6.4,6.4-11,5.7c-1.9-0.3-3.6-0.9-5.1-1.9
		c-1.5-0.9-2.6-2.1-3.5-3.6c-0.9-1.5-1.5-3-2-4.6c-0.5-1.6-0.8-3.4-0.9-5.3c-0.3-3.4-0.1-7,0.5-10.7c0.7-3.7,1.5-6.8,2.6-9.4
		c1.3-2.9,2.4-5.2,3.4-6.7c2-3,4.2-4.4,6.6-4.3C476.6,14.9,476.7,15,476.8,15z M476.3,17.2c-1.5-0.1-3,1-4.5,3.3
		c-0.9,1.3-1.9,3.4-3.1,6.2c-1,2.4-1.8,5.4-2.4,8.9c-0.6,3.5-0.8,6.8-0.6,10c0.6,8,3.8,12.4,9.5,13.2c3.6,0.6,6.5-1,8.6-4.6
		c2.1-3.4,3.2-7.9,3.5-13.6c0.2-5.6-0.6-10.7-2.4-15.1c-1.9-4.7-4.5-7.6-7.7-8.6H477C476.8,17.2,476.6,17.2,476.3,17.2z"/>
	<path fill="#E53020" stroke="#E53020" stroke-width="2" stroke-miterlimit="10" d="M494.3,16.7c2,14.6,3.9,25.5,5.6,32.8
		c0,0.1,0.1,0.5,0.3,1l0.3,1.5c0.3,1.5,0.7,2.7,1,3.6c0.4,1.3,0.9,2.3,1.3,2.9c0.1,0.2,0.3,0.3,0.4,0.4c0.1-0.1,0.2-0.3,0.3-0.6
		c0.3-0.5,0.5-1.2,0.8-2c0.1-0.4,0.5-1.5,1-3.3c0.6-1.8,1.2-3.7,1.9-5.6l1.8-4.9l2.2-5.8l2-5.2c0-0.3,0.1-0.6,0.4-0.9
		c0.4-0.4,0.8-0.5,1.3-0.3c0.6,0.2,0.9,0.6,0.8,1.3l8.5,21.1c0,0,0.1,0.3,0.3,0.8l0.6,1.5l0.7,1.7c0.4,0.9,0.8,1.6,1.2,2.1l0.1-0.3
		c0.3-0.7,0.7-1.8,1.1-3.2c0.1-0.4,0.6-2.3,1.5-5.6c2-7.8,4.2-19.3,6.6-34.5c0-0.3,0.2-0.5,0.4-0.7s0.5-0.3,0.9-0.2
		c0.3,0,0.6,0.2,0.8,0.4c0.2,0.3,0.3,0.6,0.2,0.9c-2.4,15.3-4.7,26.8-6.7,34.6c-0.8,3.3-1.3,5.2-1.5,5.8c-0.4,1.5-0.8,2.6-1.2,3.4
		c-0.3,0.6-0.5,1-0.7,1.3c-0.4,0.6-0.9,0.9-1.5,0.9c-0.4,0-0.8-0.2-1.2-0.6c-0.3-0.2-0.5-0.5-0.8-0.9c-0.3-0.6-0.7-1.4-1.2-2.4
		c-0.3-0.5-0.5-1.1-0.7-1.7l-0.6-1.6c-0.2-0.5-0.3-0.7-0.4-0.8l-7.6-18.8c-3.5,8.9-5.8,15.2-6.9,18.9c-0.6,1.9-0.9,3-1,3.4
		c-0.3,0.9-0.6,1.7-0.9,2.3c-0.2,0.4-0.3,0.7-0.4,0.9c-0.3,0.4-0.5,0.7-0.8,0.8c-0.6,0.3-1.3,0.4-2,0.1c-0.5-0.2-1-0.6-1.4-1.2
		c-0.6-0.8-1.2-2-1.7-3.5c-0.3-1.1-0.7-2.4-1-3.9l-0.3-1.5c-0.1-0.6-0.2-0.9-0.2-1c-1.7-7-3.6-18-5.8-33c0-0.3,0-0.6,0.2-0.8
		c0.2-0.3,0.4-0.4,0.8-0.4c0.3,0,0.6,0,0.9,0.2C494.1,16.1,494.3,16.4,494.3,16.7z"/>
</g>
<g>
</g>
<g>
</g>
<g>
</g>
<g>
</g>
<g>
</g>
<g>
</g>
</svg>
